<?xml version="1.0" encoding="UTF-8"?>
<svg id="Layer_1" data-name="Layer 1" xmlns="http://www.w3.org/2000/svg" xmlns:xlink="http://www.w3.org/1999/xlink" version="1.1" viewBox="0 0 1000 300">
  <defs>
    <style>
      .cls-1 {
        fill: url(#linear-gradient);
      }

      .cls-1, .cls-2, .cls-3, .cls-4, .cls-5, .cls-6, .cls-7 {
        stroke-width: 0px;
      }

      .cls-2 {
        fill: #000;
      }

      .cls-3 {
        fill: url(#linear-gradient-4);
      }

      .cls-4 {
        fill: url(#linear-gradient-2);
      }

      .cls-5 {
        fill: url(#linear-gradient-3);
      }

      .cls-6 {
        fill: url(#linear-gradient-5);
      }

      .cls-7 {
        fill: url(#linear-gradient-6);
      }
    </style>
    <linearGradient id="linear-gradient" x1="104.98" y1="231.95" x2="104.58" y2="334.77" gradientTransform="translate(104 444) scale(1 -1)" gradientUnits="userSpaceOnUse">
      <stop offset="0" stop-color="#00441b"/>
      <stop offset=".72" stop-color="#016429"/>
    </linearGradient>
    <linearGradient id="linear-gradient-2" x1="38.3" y1="232.68" x2="38.3" y2="307.84" gradientTransform="translate(104 444) scale(1 -1)" gradientUnits="userSpaceOnUse">
      <stop offset="0" stop-color="#00441b"/>
      <stop offset=".98" stop-color="#016429"/>
    </linearGradient>
    <linearGradient id="linear-gradient-3" x1="-15.24" x2="-15.24" xlink:href="#linear-gradient-2"/>
    <linearGradient id="linear-gradient-4" x1="99.35" y1="289.07" x2="99.35" y2="391.89" gradientTransform="translate(104 444) scale(1 -1)" gradientUnits="userSpaceOnUse">
      <stop offset="0" stop-color="#083535"/>
      <stop offset=".7" stop-color="#147e7f"/>
    </linearGradient>
    <linearGradient id="linear-gradient-5" x1="47.23" x2="47.23" xlink:href="#linear-gradient-4"/>
    <linearGradient id="linear-gradient-6" x1="-7.19" x2="-7.19" xlink:href="#linear-gradient-4"/>
  </defs>
  <g>
    <polygon class="cls-2" points="287.05 155.73 348.09 155.73 348.09 137.17 309.36 137.17 309.36 128.15 343.53 128.15 343.53 110.91 309.36 110.91 309.36 101.89 346.97 101.89 346.97 83.33 287.05 83.33 287.05 155.73"/>
    <polygon class="cls-2" points="420.08 83.33 397.16 83.33 385.5 127.24 385.3 127.24 373.44 83.33 350.93 83.33 372.52 155.73 397.47 155.73 420.08 83.33"/>
    <polygon class="cls-2" points="424.13 155.73 485.17 155.73 485.17 137.17 446.44 137.17 446.44 128.15 480.61 128.15 480.61 110.91 446.44 110.91 446.44 101.89 484.06 101.89 484.06 83.33 424.13 83.33 424.13 155.73"/>
    <path class="cls-2" d="M517.82,100.57h10.44c4.26,0,7.17.64,8.72,1.93,1.55,1.22,2.33,2.97,2.33,5.27,0,1.62-.34,2.91-1.01,3.85-.61.95-1.39,1.69-2.33,2.23-.95.47-2.03.78-3.24.91-1.15.14-2.23.2-3.24.2h-11.66v-14.39h-.01ZM495.52,155.73h22.31v-25.25h11.86c2.23,0,3.95.41,5.17,1.22,1.28.81,2.26,1.89,2.94,3.24s1.12,2.87,1.32,4.56c.27,1.69.47,3.38.61,5.07.14,1.89.34,3.79.61,5.68.27,1.83.68,3.65,1.22,5.48h22.31c-.54-.81-.95-1.89-1.22-3.24-.27-1.42-.51-2.87-.71-4.36-.14-1.55-.24-3.04-.3-4.46-.07-1.42-.14-2.57-.2-3.45-.41-4.53-1.52-8.38-3.35-11.56-1.83-3.18-4.26-5.34-7.3-6.49,1.83-.68,3.41-1.66,4.77-2.94,1.42-1.28,2.57-2.74,3.45-4.36s1.52-3.35,1.93-5.17c.47-1.89.71-3.79.71-5.68,0-3.45-.64-6.46-1.93-9.02-1.28-2.57-3.01-4.7-5.17-6.39-2.16-1.76-4.66-3.08-7.5-3.95-2.84-.88-5.85-1.32-9.02-1.32h-42.48l-.03,72.39Z"/>
    <path class="cls-2" d="M624.39,155.73h14.09v-39.85h-29.61v15.51h9.84c-.27,1.35-.78,2.53-1.52,3.55-.74,1.01-1.66,1.86-2.74,2.53-1.08.61-2.26,1.08-3.55,1.42-1.22.34-2.47.51-3.75.51-3.38,0-6.15-.64-8.31-1.93-2.1-1.35-3.75-2.97-4.97-4.87-1.15-1.89-1.96-3.92-2.43-6.08-.41-2.16-.61-4.09-.61-5.78v-3.24c.07-1.42.2-2.91.41-4.46.27-1.55.68-3.11,1.22-4.66.61-1.62,1.45-3.08,2.53-4.36,1.08-1.28,2.47-2.33,4.16-3.14,1.76-.81,3.92-1.22,6.49-1.22s4.93.84,6.89,2.53c2.03,1.69,3.24,3.85,3.65,6.49h21.39c-1.62-8.58-5.27-15.24-10.95-19.97-5.68-4.73-13.15-7.1-22.41-7.1-4.06,0-8.21.74-12.47,2.23-4.19,1.42-8.01,3.68-11.46,6.79-3.45,3.04-6.29,7.03-8.52,11.96-2.16,4.87-3.24,10.75-3.24,17.64,0,5.14.78,9.97,2.33,14.5,1.62,4.53,3.92,8.48,6.89,11.86,3.04,3.31,6.69,5.95,10.95,7.91s9.06,2.94,14.4,2.94c3.99,0,7.77-.71,11.36-2.13,3.65-1.42,6.73-3.75,9.23-7l.71,7.42Z"/>
    <path class="cls-2" d="M671.84,100.57h10.44c4.26,0,7.17.64,8.72,1.93,1.55,1.22,2.33,2.97,2.33,5.27,0,1.62-.34,2.91-1.01,3.85-.61.95-1.39,1.69-2.33,2.23-.95.47-2.03.78-3.24.91-1.15.14-2.23.2-3.24.2h-11.66v-14.39h-.01ZM649.54,155.73h22.31v-25.25h11.86c2.23,0,3.95.41,5.17,1.22,1.28.81,2.26,1.89,2.94,3.24s1.12,2.87,1.32,4.56c.27,1.69.47,3.38.61,5.07.14,1.89.34,3.79.61,5.68.27,1.83.68,3.65,1.22,5.48h22.31c-.54-.81-.95-1.89-1.22-3.24-.27-1.42-.51-2.87-.71-4.36-.14-1.55-.24-3.04-.3-4.46-.07-1.42-.14-2.57-.2-3.45-.41-4.53-1.52-8.38-3.35-11.56-1.83-3.18-4.26-5.34-7.3-6.49,1.83-.68,3.41-1.66,4.77-2.94,1.42-1.28,2.57-2.74,3.45-4.36s1.52-3.35,1.93-5.17c.47-1.89.71-3.79.71-5.68,0-3.45-.64-6.46-1.93-9.02-1.28-2.57-3.01-4.7-5.17-6.39-2.16-1.76-4.66-3.08-7.5-3.95-2.84-.88-5.85-1.32-9.02-1.32h-42.48l-.03,72.39Z"/>
    <polygon class="cls-2" points="724.67 155.73 785.71 155.73 785.71 137.17 746.98 137.17 746.98 128.15 781.15 128.15 781.15 110.91 746.98 110.91 746.98 101.89 784.6 101.89 784.6 83.33 724.67 83.33 724.67 155.73"/>
    <polygon class="cls-2" points="796.05 155.73 857.09 155.73 857.09 137.17 818.36 137.17 818.36 128.15 852.53 128.15 852.53 110.91 818.36 110.91 818.36 101.89 855.98 101.89 855.98 83.33 796.05 83.33 796.05 155.73"/>
    <polygon class="cls-2" points="867.54 155.73 888.63 155.73 888.63 116.18 888.83 116.18 911.03 155.73 932.73 155.73 932.73 83.33 911.64 83.33 911.64 122.06 911.44 122.06 890.35 83.33 867.54 83.33 867.54 155.73"/>
    <path class="cls-2" d="M315.74,181.28h8.45c3.44,0,5.31,1.47,5.31,4.87s-1.87,5.01-5.31,5.01h-8.45v-9.88ZM308.02,210.37h7.72v-13.71h7.72c3.88,0,5.31,1.62,5.85,5.31.39,2.8.29,6.19,1.23,8.4h7.72c-1.38-1.97-1.33-6.09-1.47-8.31-.25-3.54-1.33-7.22-5.11-8.21v-.1c3.88-1.57,5.55-4.67,5.55-8.8,0-5.31-3.98-9.68-10.27-9.68h-18.92v35.1h-.02Z"/>
    <polygon class="cls-2" points="372.97 210.37 399.61 210.37 399.61 203.89 380.69 203.89 380.69 195.29 397.69 195.29 397.69 189.29 380.69 189.29 380.69 181.77 399.22 181.77 399.22 175.28 372.97 175.28 372.97 210.37"/>
    <polygon class="cls-2" points="434.28 210.37 441.5 210.37 441.5 186.88 441.6 186.88 456.2 210.37 463.92 210.37 463.92 175.28 456.69 175.28 456.69 198.82 456.59 198.82 441.95 175.28 434.28 175.28 434.28 210.37"/>
    <polygon class="cls-2" points="500.16 210.37 526.8 210.37 526.8 203.89 507.88 203.89 507.88 195.29 524.88 195.29 524.88 189.29 507.88 189.29 507.88 181.77 526.4 181.77 526.4 175.28 500.16 175.28 500.16 210.37"/>
    <polygon class="cls-2" points="604.33 175.28 596.76 175.28 591.01 199.46 590.91 199.46 584.91 175.28 577.69 175.28 571.59 199.17 571.49 199.17 565.94 175.28 558.23 175.28 567.51 210.37 575.33 210.37 581.18 186.49 581.28 186.49 587.22 210.37 594.89 210.37 604.33 175.28"/>
    <path class="cls-2" d="M650.74,183.93h.1l4.42,12.88h-9.09l4.57-12.88ZM633.59,210.37h7.81l2.75-7.81h13.12l2.65,7.81h8.01l-13.12-35.09h-7.91l-13.31,35.09Z"/>
    <path class="cls-2" d="M708.17,181.28h7.22c2.75,0,5.31.69,5.31,4.03,0,2.95-2.02,4.18-4.72,4.18h-7.81v-8.21ZM700.45,210.37h17.01c6.34,0,12.39-3.05,12.39-10.17,0-4.37-2.16-7.67-6.44-8.9,3.05-1.47,4.77-3.88,4.77-7.32,0-6.54-4.52-8.7-11.21-8.7h-16.52v35.09ZM708.17,194.75h8.4c3.29,0,5.55,1.43,5.55,5.01s-2.65,4.62-5.7,4.62h-8.26v-9.63h.01Z"/>
    <polygon class="cls-2" points="764.51 210.37 789.33 210.37 789.33 203.89 772.23 203.89 772.23 175.28 764.51 175.28 764.51 210.37"/>
    <polygon class="cls-2" points="823.12 210.37 849.76 210.37 849.76 203.89 830.84 203.89 830.84 195.29 847.84 195.29 847.84 189.29 830.84 189.29 830.84 181.77 849.37 181.77 849.37 175.28 823.12 175.28 823.12 210.37"/>
    <path class="cls-2" d="M882.22,198.73c-.1,8.65,7.18,12.48,14.94,12.48,9.53,0,14.6-4.82,14.6-11.25,0-7.96-7.86-9.58-10.42-10.22-8.8-2.26-10.47-2.6-10.47-5.31,0-2.95,2.85-3.98,5.31-3.98,3.69,0,6.68,1.08,6.93,5.31h7.47c0-8.11-6.73-11.3-14.06-11.3-6.34,0-13.12,3.44-13.12,10.62,0,6.59,5.26,8.6,10.47,9.98,5.16,1.38,10.42,2.01,10.42,5.8,0,3.59-4.13,4.37-6.83,4.37-4.13,0-7.77-1.82-7.77-6.49h-7.47Z"/>
  </g>
  <g>
    <polygon class="cls-1" points="157.42 211.95 223.33 137.89 260.24 137.89 194.4 211.95 157.42 211.95"/>
    <polygon class="cls-4" points="104.72 211.95 143.46 168.51 179.88 168.51 141.64 211.95 104.72 211.95"/>
    <polygon class="cls-5" points="51.18 211.95 89.93 168.51 126.34 168.51 88.1 211.95 51.18 211.95"/>
    <polygon class="cls-3" points="151.94 155.67 217.85 81.61 254.76 81.61 188.91 155.67 151.94 155.67"/>
    <polygon class="cls-6" points="99.82 155.67 165.73 81.61 202.64 81.61 136.8 155.67 99.82 155.67"/>
    <polygon class="cls-7" points="45.4 155.67 111.31 81.61 148.22 81.61 82.38 155.67 45.4 155.67"/>
  </g>
</svg>